HIERARCHY
ROOT Hips
{
	OFFSET 0.000000 0.000000 0.000000 
	CHANNELS 6 Xposition Yposition Zposition Zrotation Yrotation Xrotation
	JOINT LeftUpLeg
	{
		OFFSET 1.363060 -1.794630 0.839290 
		CHANNELS 3 Zrotation Yrotation Xrotation
		JOINT LeftLeg
		{
			OFFSET 2.448110 -6.726130 0.000000 
			CHANNELS 3 Zrotation Yrotation Xrotation
			JOINT LeftFoot
			{
				OFFSET 2.562200 -7.039590 0.000000 
				CHANNELS 3 Zrotation Yrotation Xrotation
				JOINT LeftToeBase
				{
					OFFSET 0.157640 -0.433110 2.322550 
					CHANNELS 3 Zrotation Yrotation Xrotation
					End Site
					{
						OFFSET 0.000000 0.000000 0.000000 
					}
				}
			}
		}
	}
	JOINT RightUpLeg
	{
		OFFSET -1.305520 -1.794630 0.839290 
		CHANNELS 3 Zrotation Yrotation Xrotation
		JOINT RightLeg
		{
			OFFSET -2.542530 -6.985550 0.000000 
			CHANNELS 3 Zrotation Yrotation Xrotation
			JOINT RightFoot
			{
				OFFSET -2.568260 -7.056230 0.000000 
				CHANNELS 3 Zrotation Yrotation Xrotation
				JOINT RightToeBase
				{
					OFFSET -0.164730 -0.452590 2.363150 
					CHANNELS 3 Zrotation Yrotation Xrotation
					End Site
					{
						OFFSET 0.000000 0.000000 0.000000 
					}
				}
			}
		}
	}
	JOINT Spine
	{
		OFFSET 0.028270 2.035590 -0.193380 
		CHANNELS 3 Zrotation Yrotation Xrotation
		JOINT Spine1
		{
			OFFSET 0.056720 2.048850 -0.042750 
			CHANNELS 3 Zrotation Yrotation Xrotation
			JOINT Neck1
			{
				OFFSET -0.054170 1.746240 0.172020 
				CHANNELS 3 Zrotation Yrotation Xrotation
				JOINT Head
				{
					OFFSET 0.104070 1.761360 -0.123970 
					CHANNELS 3 Zrotation Yrotation Xrotation
					End Site
					{
						OFFSET 0.000000 0.000000 0.000000 
					}
				}
			}
			JOINT LeftArm
			{
				OFFSET 3.362410 1.200890 -0.311210 
				CHANNELS 3 Zrotation Yrotation Xrotation
				JOINT LeftForeArm
				{
					OFFSET 4.983000 -0.000000 -0.000000 
					CHANNELS 3 Zrotation Yrotation Xrotation
					JOINT LeftHand
					{
						OFFSET 3.483560 -0.000000 -0.000000 
						CHANNELS 3 Zrotation Yrotation Xrotation
						JOINT LeftHandIndex1
						{
							OFFSET 0.715260 -0.000000 -0.000000 
							CHANNELS 3 Zrotation Yrotation Xrotation
							End Site
							{
								OFFSET 0.000000 0.000000 0.000000 
							}
						}
					}
				}
			}
			JOINT RightArm
			{
				OFFSET -3.136600 1.374050 -0.404650 
				CHANNELS 3 Zrotation Yrotation Xrotation
				JOINT RightForeArm
				{
					OFFSET -5.241900 -0.000000 -0.000000 
					CHANNELS 3 Zrotation Yrotation Xrotation
					JOINT RightHand
					{
						OFFSET -3.444170 -0.000000 -0.000000 
						CHANNELS 3 Zrotation Yrotation Xrotation
						JOINT RightHandIndex1
						{
							OFFSET -0.622530 -0.000000 -0.000000 
							CHANNELS 3 Zrotation Yrotation Xrotation
							End Site
							{
								OFFSET 0.000000 0.000000 0.000000 
							}
						}
					}
				}
			}
		}
	}
}
MOTION
Frames: 18
Frame Time: 0.041667
-0.112608 17.858762 -31.398355 -2.394847 3.843658 2.991663 -10.889591 -4.175648 -8.424931 0.293995 8.514049 21.972120 -3.442110 15.002592 -1.912320 0.167400 -2.635500 -7.265600 18.092162 -0.166198 -10.139844 -1.421779 -9.661077 25.569981 4.343573 -19.287860 -8.385485 -0.015300 0.799100 -2.196200 3.115068 -0.903536 -2.488648 2.818333 -0.481755 -2.762694 0.107543 0.956682 19.063093 -3.065000 0.879800 12.070300 -89.984406 10.606583 17.683514 19.825583 -29.747088 -4.744592 0.175596 0.483331 -5.447152 -7.125000 0.000000 0.000000 83.914260 -6.838123 9.267574 -15.837964 25.267346 -3.421108 0.035121 -0.582176 -4.021133 7.125000 0.000000 0.000000 
-0.115584 17.860647 -31.404407 -2.509251 3.842796 2.987065 -10.755533 -4.168718 -8.497290 0.309441 8.542414 22.060411 -3.440677 14.987493 -1.920857 0.172000 -2.671300 -7.365000 18.244292 -0.051696 -10.105715 -1.414991 -9.646250 25.521588 4.377641 -19.414255 -8.358276 -0.015600 0.805800 -2.214700 3.148292 -0.958863 -2.562523 2.795705 -0.509937 -2.929634 0.174471 1.021139 19.209677 -3.016200 0.917300 12.131900 -90.024169 10.758208 17.506709 19.859252 -29.785036 -4.758974 0.174911 0.484373 -5.322128 -7.125000 0.000000 0.000000 83.895958 -6.901629 9.393183 -15.833495 25.260891 -3.418960 0.035255 -0.582408 -4.011785 7.125000 0.000000 0.000000 
-0.114493 17.859060 -31.406392 -2.535800 3.788199 2.996491 -10.725723 -4.183904 -8.522080 0.311965 8.546667 22.072658 -3.454911 15.033395 -1.937759 0.164100 -2.609800 -7.194100 18.266492 -0.014568 -10.113291 -1.412891 -9.641701 25.508672 4.377741 -19.413654 -8.334916 -0.015900 0.814300 -2.237900 3.147732 -0.985102 -2.614781 2.757005 -0.522517 -3.034243 0.150685 1.089813 19.245849 -3.017200 0.947100 12.150100 -90.060537 10.885793 17.351719 19.903694 -29.836569 -4.778007 0.172724 0.484691 -5.225860 -7.125000 0.000000 0.000000 83.864068 -6.992006 9.648065 -15.898316 25.343981 -3.443887 0.038607 -0.585464 -4.254204 7.125000 0.000000 0.000000 
-0.113004 17.860548 -31.407781 -2.510433 3.777970 2.996272 -10.768074 -4.192502 -8.524511 0.315780 8.556641 22.100919 -3.460882 15.054858 -1.962158 0.165500 -2.620800 -7.224800 18.226081 -0.039161 -10.112246 -1.408788 -9.633309 25.482694 4.368118 -19.375558 -8.286892 -0.015800 0.810400 -2.227300 3.139012 -0.949225 -2.598070 2.767572 -0.503499 -3.016302 0.165971 1.054582 19.188989 -3.016700 0.931800 12.113900 -90.036994 10.862741 17.425124 19.898022 -29.829780 -4.775460 0.172690 0.485174 -5.340213 -7.125000 0.000000 0.000000 83.875034 -7.009469 9.526431 -15.879060 25.317654 -3.435507 0.035166 -0.582625 -4.180528 7.125000 0.000000 0.000000 
-0.112409 17.861242 -31.409666 -2.530642 3.765374 2.995010 -10.752488 -4.217324 -8.519189 0.316261 8.557050 22.100698 -3.472860 15.095802 -1.967411 0.165200 -2.618700 -7.218900 18.245110 -0.026118 -10.109020 -1.406446 -9.628673 25.467505 4.368960 -19.378622 -8.264674 -0.015800 0.812300 -2.232400 3.142878 -0.949166 -2.612221 2.758777 -0.503070 -3.055164 0.169988 1.069102 19.173331 -3.012700 0.938700 12.097900 -90.040864 10.903349 17.398120 19.904971 -29.837218 -4.778302 0.172172 0.485492 -5.380154 -7.125000 0.000000 0.000000 83.866939 -7.049567 9.521466 -15.869664 25.303757 -3.430693 0.032726 -0.580400 -4.163415 7.125000 0.000000 0.000000 
-0.111615 17.861838 -31.410956 -2.546515 3.758021 2.991482 -10.743613 -4.248378 -8.508725 0.317541 8.559806 22.107254 -3.485439 15.138532 -1.982527 0.165300 -2.619500 -7.221300 18.257996 -0.030613 -10.099347 -1.401956 -9.619944 25.438995 4.368596 -19.376775 -8.234533 -0.016000 0.815800 -2.242200 3.144004 -0.948340 -2.616036 2.747680 -0.502542 -3.075401 0.194098 1.079024 19.135172 -2.999300 0.943600 12.070700 -90.037935 10.924066 17.385886 19.904259 -29.835655 -4.777795 0.171840 0.485980 -5.439746 -7.125000 0.000000 0.000000 83.862899 -7.075288 9.488036 -15.851984 25.279118 -3.422304 0.029677 -0.577425 -4.123430 7.125000 0.000000 0.000000 
-0.110822 17.862433 -31.411948 -2.563264 3.756059 2.986106 -10.733571 -4.275943 -8.497463 0.319031 8.563024 22.115423 -3.496144 15.174637 -1.997266 0.166200 -2.626300 -7.239900 18.273034 -0.037835 -10.087250 -1.397523 -9.611569 25.411652 4.368424 -19.376448 -8.213051 -0.016000 0.817900 -2.247900 3.144724 -0.949449 -2.614960 2.735796 -0.503057 -3.087745 0.213031 1.087980 19.095826 -2.989200 0.947900 12.044200 -90.031182 10.934064 17.379811 19.898702 -29.828168 -4.774943 0.171353 0.486488 -5.505793 -7.125000 0.000000 0.000000 83.862634 -7.089802 9.439999 -15.830971 25.250456 -3.412938 0.026730 -0.574502 -4.069269 7.125000 0.000000 0.000000 
-0.110028 17.862631 -31.412940 -2.581184 3.752557 2.982288 -10.720370 -4.302159 -8.489630 0.320251 8.565505 22.121859 -3.506092 15.207854 -2.008975 0.166800 -2.631400 -7.254200 18.289115 -0.043280 -10.079193 -1.393917 -9.604662 25.389424 4.368107 -19.375403 -8.195561 -0.016100 0.818700 -2.250000 3.144547 -0.951247 -2.613816 2.721011 -0.504026 -3.100809 0.224281 1.106790 19.053693 -2.983100 0.956600 12.019500 -90.023004 10.940972 17.372342 19.890231 -29.817310 -4.770899 0.170736 0.487295 -5.557448 -7.125000 0.000000 0.000000 83.864526 -7.098156 9.398955 -15.815052 25.228696 -3.405810 0.024560 -0.572340 -4.031144 7.125000 0.000000 0.000000 
-0.109234 17.862731 -31.413833 -2.594454 3.742793 2.979663 -10.712404 -4.310036 -8.489963 0.321925 8.568607 22.130432 -3.512634 15.229568 -2.018694 0.167200 -2.634000 -7.261400 18.299016 -0.045793 -10.074058 -1.391275 -9.599531 25.372902 4.366755 -19.370666 -8.178919 -0.016200 0.820600 -2.255300 3.141190 -0.949786 -2.610646 2.703934 -0.503320 -3.112484 0.232203 1.138762 19.015303 -2.979200 0.971900 12.003600 -90.011496 10.940970 17.368061 19.879119 -29.803244 -4.765685 0.170146 0.488290 -5.585633 -7.125000 0.000000 0.000000 83.870927 -7.098954 9.365354 -15.807085 25.218277 -3.402542 0.023435 -0.571482 -4.014976 7.125000 0.000000 0.000000 
-0.108441 17.862532 -31.414924 -2.600114 3.729243 2.980926 -10.709846 -4.309754 -8.500902 0.323593 8.571806 22.139835 -3.516532 15.242656 -2.021082 0.166700 -2.630100 -7.250500 18.300209 -0.041342 -10.075837 -1.389837 -9.596509 25.363527 4.366281 -19.368245 -8.163435 -0.016300 0.823300 -2.262700 3.136524 -0.942772 -2.607349 2.691197 -0.499512 -3.123007 0.218374 1.169887 18.978667 -2.987400 0.985900 11.990900 -89.999729 10.936378 17.370478 19.864445 -29.784840 -4.758765 0.169623 0.489192 -5.597911 -7.125000 0.000000 0.000000 83.878936 -7.096652 9.333879 -15.807543 25.219087 -3.403269 0.023460 -0.572030 -4.019402 7.125000 0.000000 0.000000 
-0.107548 17.862235 -31.416115 -2.605479 3.711116 2.982431 -10.707946 -4.299418 -8.516408 0.325766 8.575793 22.151596 -3.519346 15.251861 -2.021665 0.166700 -2.630300 -7.251000 18.300873 -0.033150 -10.079153 -1.389051 -9.594767 25.358256 4.365265 -19.363819 -8.148228 -0.016400 0.826000 -2.270000 3.132618 -0.931266 -2.603345 2.679553 -0.493525 -3.130707 0.195764 1.197248 18.955699 -3.000300 0.998200 11.985800 -89.990873 10.930195 17.374633 19.846399 -29.762538 -4.750655 0.169555 0.490149 -5.591900 -7.125000 0.000000 0.000000 83.887462 -7.090750 9.295485 -15.806647 25.218449 -3.404041 0.023524 -0.573117 -4.027672 7.125000 0.000000 0.000000 
-0.106754 17.862135 -31.417206 -2.608343 3.692309 2.984875 -10.708960 -4.284838 -8.534525 0.328202 8.580067 22.164658 -3.521748 15.260315 -2.019740 0.166300 -2.627100 -7.242200 18.299536 -0.022104 -10.083335 -1.388635 -9.593709 25.354986 4.365336 -19.363025 -8.130767 -0.016600 0.831200 -2.284400 3.132398 -0.924264 -2.606469 2.674409 -0.489500 -3.141266 0.180319 1.217899 18.925650 -3.007700 1.006600 11.968700 -89.994784 10.947654 17.365480 19.832204 -29.745143 -4.744291 0.169737 0.490960 -5.588234 -7.125000 0.000000 0.000000 83.886262 -7.099045 9.254618 -15.797244 25.205973 -3.401254 0.022956 -0.573567 -3.994583 7.125000 0.000000 0.000000 
-0.106059 17.862135 -31.418198 -2.611100 3.677554 2.986571 -10.710149 -4.270044 -8.552052 0.330938 8.585226 22.179905 -3.523769 15.267149 -2.017363 0.166700 -2.630200 -7.250800 18.299417 -0.010878 -10.084300 -1.387963 -9.591980 25.350005 4.365663 -19.363846 -8.120652 -0.016600 0.832800 -2.288800 3.134470 -0.916983 -2.607446 2.673039 -0.485538 -3.145039 0.167964 1.211446 18.904928 -3.013900 1.002100 11.952200 -90.003217 10.963023 17.355102 19.817517 -29.727101 -4.737605 0.169886 0.491050 -5.580148 -7.125000 0.000000 0.000000 83.883341 -7.102426 9.194174 -15.779608 25.182726 -3.395119 0.021896 -0.573463 -3.931947 7.125000 0.000000 0.000000 
-0.105365 17.862235 -31.418893 -2.615880 3.667048 2.987574 -10.710106 -4.257678 -8.565213 0.333295 8.589493 22.192849 -3.526043 15.275188 -2.014289 0.167800 -2.638800 -7.274600 18.302072 -0.002961 -10.083600 -1.386982 -9.590035 25.344002 4.366194 -19.365254 -8.113467 -0.016600 0.832900 -2.289200 3.137901 -0.913333 -2.607865 2.670787 -0.483495 -3.145545 0.173509 1.199810 18.878895 -3.009900 0.995100 11.930800 -90.017378 10.986090 17.333794 19.809483 -29.717255 -4.734011 0.169790 0.491356 -5.568354 -7.125000 0.000000 0.000000 83.878458 -7.103803 9.129285 -15.757190 25.153012 -3.386650 0.020547 -0.572696 -3.851580 7.125000 0.000000 0.000000 
-0.104670 17.862433 -31.419389 -2.620176 3.662659 2.986090 -10.711032 -4.251181 -8.570524 0.335107 8.592970 22.202698 -3.528967 15.285888 -2.011967 0.169300 -2.650300 -7.306700 18.305332 0.001923 -10.078539 -1.385871 -9.587907 25.337223 4.367077 -19.368785 -8.114338 -0.016600 0.831800 -2.286100 3.141133 -0.911971 -2.606203 2.668518 -0.482865 -3.144324 0.176384 1.182655 18.859947 -3.007700 0.985600 11.914800 -90.033732 11.010204 17.307564 19.806700 -29.713890 -4.732625 0.169159 0.491805 -5.550868 -7.125000 0.000000 0.000000 83.874855 -7.101797 9.062466 -15.734893 25.123405 -3.378020 0.019183 -0.571609 -3.768851 7.125000 0.000000 0.000000 
-0.103976 17.862433 -31.419786 -2.623356 3.658983 2.983404 -10.712536 -4.260269 -8.566668 0.336088 8.594796 22.207156 -3.535021 15.307253 -2.013284 0.170600 -2.660600 -7.335200 18.307039 0.005640 -10.072574 -1.384693 -9.585972 25.331121 4.366490 -19.367232 -8.121857 -0.016300 0.824500 -2.266100 3.148452 -0.916202 -2.603622 2.673153 -0.484867 -3.142219 0.152068 1.187678 18.852268 -3.017200 0.984900 11.909000 -90.064401 11.035799 17.259413 19.807213 -29.714932 -4.732707 0.168209 0.492467 -5.531148 -7.125000 0.000000 0.000000 83.860621 -7.097407 9.022111 -15.718592 25.101223 -3.371487 0.018192 -0.570560 -3.713421 7.125000 0.000000 0.000000 
-0.103281 17.862532 -31.420182 -2.624836 3.654833 2.979276 -10.716652 -4.270849 -8.556852 0.336298 8.595371 22.207403 -3.541718 15.330688 -2.019092 0.170800 -2.662600 -7.340900 18.306982 0.009854 -10.064420 -1.383598 -9.584378 25.326196 4.365843 -19.365465 -8.130490 -0.016100 0.818900 -2.250600 3.153281 -0.918016 -2.598820 2.675601 -0.485743 -3.140935 0.125090 1.212066 18.845749 -3.028500 0.993900 11.911200 -90.092353 11.052813 17.209767 19.801587 -29.708553 -4.730143 0.167905 0.492599 -5.489784 -7.125000 0.000000 0.000000 83.851279 -7.091438 8.990304 -15.711423 25.091168 -3.368473 0.017805 -0.569971 -3.690707 7.125000 0.000000 0.000000 
-0.102587 17.862532 -31.420480 -2.627322 3.647804 2.974226 -10.718833 -4.284541 -8.543649 0.335948 8.594748 22.204211 -3.549114 15.357170 -2.023745 0.170300 -2.658500 -7.329400 18.308144 0.017107 -10.055041 -1.382846 -9.583395 25.323006 4.365239 -19.363695 -8.140482 -0.015900 0.813500 -2.235700 3.157958 -0.918667 -2.594473 2.677417 -0.486053 -3.142023 0.090927 1.240755 18.845150 -3.043700 1.005200 11.917500 -90.121251 11.070902 17.155072 19.793188 -29.698816 -4.726563 0.168263 0.492314 -5.440305 -7.125000 0.000000 0.000000 83.842685 -7.090039 8.974723 -15.714037 25.093946 -3.369420 0.018110 -0.570054 -3.701655 7.125000 0.000000 0.000000 
